<svg width="22" height="21" viewBox="0 0 22 21" fill="none" xmlns="http://www.w3.org/2000/svg">
<path d="M12.53 0.450195L11.45 1.5302L13.05 3.1302C13.27 3.3802 13.38 3.6702 13.38 4.0002C13.38 4.3302 13.27 4.6402 13.05 4.8602L9.5 8.4702L10.5 9.5502L14.13 5.9402C14.66 5.35019 14.92 4.7002 14.92 4.0002C14.92 3.3002 14.66 2.6402 14.13 2.0502L12.53 0.450195ZM8.55 2.4702L7.47 3.5502L8.08 4.1102C8.3 4.3302 8.41 4.6302 8.41 5.0002C8.41 5.3702 8.3 5.6702 8.08 5.89019L7.47 6.4502L8.55 7.5302L9.11 6.9202C9.64 6.3302 9.91 5.6902 9.91 5.0002C9.91 4.2802 9.64 3.6302 9.11 3.0302L8.55 2.4702ZM19 4.0602C18.31 4.0602 17.67 4.3302 17.08 4.8602L11.45 10.5002L12.53 11.5002L18.11 5.9402C18.36 5.6902 18.66 5.56019 19 5.56019C19.34 5.56019 19.64 5.6902 19.89 5.9402L20.5 6.5502L21.53 5.47019L20.97 4.8602C20.38 4.3302 19.72 4.0602 19 4.0602ZM5 7.0002L0 21.0002L14 16.0002L5 7.0002ZM17 10.0602C16.3 10.0602 15.66 10.3302 15.06 10.8602L13.47 12.4502L14.55 13.5302L16.14 11.9402C16.39 11.6902 16.67 11.5602 17 11.5602C17.33 11.5602 17.63 11.6902 17.88 11.9402L19.5 13.5302L20.55 12.5002L18.95 10.8602C18.36 10.3302 17.7 10.0602 17 10.0602Z" fill="white"/>
</svg>
