<?xml version="1.0" encoding="UTF-8" standalone="no"?><svg xmlns="http://www.w3.org/2000/svg" xmlns:xlink="http://www.w3.org/1999/xlink" contentScriptType="application/ecmascript" contentStyleType="text/css" height="354px" preserveAspectRatio="none" style="width:471px;height:354px;" version="1.1" viewBox="0 0 471 354" width="471px" zoomAndPan="magnify"><defs><filter height="300%" id="fhzutixwhddkz" width="300%" x="-1" y="-1"><feGaussianBlur result="blurOut" stdDeviation="2.0"/><feColorMatrix in="blurOut" result="blurOut2" type="matrix" values="0 0 0 0 0 0 0 0 0 0 0 0 0 0 0 0 0 0 .4 0"/><feOffset dx="4.0" dy="4.0" in="blurOut2" result="blurOut3"/><feBlend in="SourceGraphic" in2="blurOut3" mode="normal"/></filter></defs><g><!--class Location--><rect fill="#FEFECE" filter="url(#fhzutixwhddkz)" height="131.0156" id="Location" style="stroke: #A80036; stroke-width: 1.5;" width="104" x="80" y="8"/><ellipse cx="106.25" cy="24" fill="#ADD1B2" rx="11" ry="11" style="stroke: #A80036; stroke-width: 1.0;"/><path d="M109.0156,19.875 Q109.1719,19.6563 109.3594,19.5469 Q109.5469,19.4375 109.7656,19.4375 Q110.1406,19.4375 110.375,19.6953 Q110.6094,19.9531 110.6094,20.5625 L110.6094,22.0156 Q110.6094,22.625 110.375,22.8906 Q110.1406,23.1563 109.7656,23.1563 Q109.4219,23.1563 109.2188,22.9531 Q109.0156,22.7656 108.9063,22.25 Q108.8594,21.8906 108.6719,21.7031 Q108.3438,21.3281 107.7344,21.1094 Q107.125,20.8906 106.5,20.8906 Q105.7344,20.8906 105.1016,21.2188 Q104.4688,21.5469 103.9766,22.2969 Q103.4844,23.0469 103.4844,24.0781 L103.4844,25.1719 Q103.4844,26.4063 104.375,27.2266 Q105.2656,28.0469 106.8594,28.0469 Q107.7969,28.0469 108.4531,27.7969 Q108.8438,27.6406 109.2656,27.2031 Q109.5313,26.9375 109.6797,26.8594 Q109.8281,26.7813 110.0313,26.7813 Q110.3594,26.7813 110.6172,27.0391 Q110.875,27.2969 110.875,27.6406 Q110.875,27.9844 110.5313,28.3906 Q110.0313,28.9688 109.2344,29.2969 Q108.1563,29.75 106.8594,29.75 Q105.3438,29.75 104.1406,29.125 Q103.1563,28.625 102.4688,27.5547 Q101.7813,26.4844 101.7813,25.2031 L101.7813,24.0469 Q101.7813,22.7188 102.3984,21.5703 Q103.0156,20.4219 104.1094,19.8047 Q105.2031,19.1875 106.4375,19.1875 Q107.1719,19.1875 107.8203,19.3516 Q108.4688,19.5156 109.0156,19.875 Z "/><text fill="#000000" font-family="sans-serif" font-size="12" lengthAdjust="spacingAndGlyphs" textLength="47" x="122.75" y="28.9102">Location</text><line style="stroke: #A80036; stroke-width: 1.5;" x1="81" x2="183" y1="40" y2="40"/><text fill="#000000" font-family="sans-serif" font-size="11" lengthAdjust="spacingAndGlyphs" textLength="63" x="86" y="55.4189">name : String</text><text fill="#000000" font-family="sans-serif" font-size="11" lengthAdjust="spacingAndGlyphs" textLength="78" x="86" y="69.2549">imageUrl : String</text><text fill="#000000" font-family="sans-serif" font-size="11" lengthAdjust="spacingAndGlyphs" textLength="51" x="86" y="83.0908">city: String</text><text fill="#000000" font-family="sans-serif" font-size="11" lengthAdjust="spacingAndGlyphs" textLength="62" x="86" y="96.9268">street: String</text><text fill="#000000" font-family="sans-serif" font-size="11" lengthAdjust="spacingAndGlyphs" textLength="73" x="86" y="110.7627">zipCode: String</text><text fill="#000000" font-family="sans-serif" font-size="11" lengthAdjust="spacingAndGlyphs" textLength="92" x="86" y="124.5986">type: LocationType</text><line style="stroke: #A80036; stroke-width: 1.5;" x1="81" x2="183" y1="131.0156" y2="131.0156"/><!--class LocationDetail--><rect fill="#FEFECE" filter="url(#fhzutixwhddkz)" height="144.8516" id="LocationDetail" style="stroke: #A80036; stroke-width: 1.5;" width="112" x="6" y="199"/><ellipse cx="21.45" cy="215" fill="#ADD1B2" rx="11" ry="11" style="stroke: #A80036; stroke-width: 1.0;"/><path d="M24.2156,210.875 Q24.3719,210.6563 24.5594,210.5469 Q24.7469,210.4375 24.9656,210.4375 Q25.3406,210.4375 25.575,210.6953 Q25.8094,210.9531 25.8094,211.5625 L25.8094,213.0156 Q25.8094,213.625 25.575,213.8906 Q25.3406,214.1563 24.9656,214.1563 Q24.6219,214.1563 24.4188,213.9531 Q24.2156,213.7656 24.1063,213.25 Q24.0594,212.8906 23.8719,212.7031 Q23.5438,212.3281 22.9344,212.1094 Q22.325,211.8906 21.7,211.8906 Q20.9344,211.8906 20.3016,212.2188 Q19.6688,212.5469 19.1766,213.2969 Q18.6844,214.0469 18.6844,215.0781 L18.6844,216.1719 Q18.6844,217.4063 19.575,218.2266 Q20.4656,219.0469 22.0594,219.0469 Q22.9969,219.0469 23.6531,218.7969 Q24.0438,218.6406 24.4656,218.2031 Q24.7313,217.9375 24.8797,217.8594 Q25.0281,217.7813 25.2313,217.7813 Q25.5594,217.7813 25.8172,218.0391 Q26.075,218.2969 26.075,218.6406 Q26.075,218.9844 25.7313,219.3906 Q25.2313,219.9688 24.4344,220.2969 Q23.3563,220.75 22.0594,220.75 Q20.5438,220.75 19.3406,220.125 Q18.3563,219.625 17.6688,218.5547 Q16.9813,217.4844 16.9813,216.2031 L16.9813,215.0469 Q16.9813,213.7188 17.5984,212.5703 Q18.2156,211.4219 19.3094,210.8047 Q20.4031,210.1875 21.6375,210.1875 Q22.3719,210.1875 23.0203,210.3516 Q23.6688,210.5156 24.2156,210.875 Z "/><text fill="#000000" font-family="sans-serif" font-size="12" lengthAdjust="spacingAndGlyphs" textLength="79" x="35.55" y="219.9102">LocationDetail</text><line style="stroke: #A80036; stroke-width: 1.5;" x1="7" x2="117" y1="231" y2="231"/><text fill="#000000" font-family="sans-serif" font-size="11" lengthAdjust="spacingAndGlyphs" textLength="93" x="12" y="246.4189">ownerName: String</text><text fill="#000000" font-family="sans-serif" font-size="11" lengthAdjust="spacingAndGlyphs" textLength="94" x="12" y="260.2549">donationLink: String</text><text fill="#000000" font-family="sans-serif" font-size="11" lengthAdjust="spacingAndGlyphs" textLength="87" x="12" y="274.0908">description: String</text><text fill="#000000" font-family="sans-serif" font-size="11" lengthAdjust="spacingAndGlyphs" textLength="76" x="12" y="287.9268">latitude: number</text><text fill="#000000" font-family="sans-serif" font-size="11" lengthAdjust="spacingAndGlyphs" textLength="85" x="12" y="301.7627">longitude: number</text><text fill="#000000" font-family="sans-serif" font-size="11" lengthAdjust="spacingAndGlyphs" textLength="100" x="12" y="315.5986">googlePlaceId: String</text><text fill="#000000" font-family="sans-serif" font-size="11" lengthAdjust="spacingAndGlyphs" textLength="73" x="12" y="329.4346">website: String</text><line style="stroke: #A80036; stroke-width: 1.5;" x1="7" x2="117" y1="335.8516" y2="335.8516"/><!--class Product--><rect fill="#FEFECE" filter="url(#fhzutixwhddkz)" height="89.5078" id="Product" style="stroke: #A80036; stroke-width: 1.5;" width="100" x="153" y="226.5"/><ellipse cx="179.7" cy="242.5" fill="#ADD1B2" rx="11" ry="11" style="stroke: #A80036; stroke-width: 1.0;"/><path d="M182.4656,238.375 Q182.6219,238.1563 182.8094,238.0469 Q182.9969,237.9375 183.2156,237.9375 Q183.5906,237.9375 183.825,238.1953 Q184.0594,238.4531 184.0594,239.0625 L184.0594,240.5156 Q184.0594,241.125 183.825,241.3906 Q183.5906,241.6563 183.2156,241.6563 Q182.8719,241.6563 182.6688,241.4531 Q182.4656,241.2656 182.3563,240.75 Q182.3094,240.3906 182.1219,240.2031 Q181.7938,239.8281 181.1844,239.6094 Q180.575,239.3906 179.95,239.3906 Q179.1844,239.3906 178.5516,239.7188 Q177.9188,240.0469 177.4266,240.7969 Q176.9344,241.5469 176.9344,242.5781 L176.9344,243.6719 Q176.9344,244.9063 177.825,245.7266 Q178.7156,246.5469 180.3094,246.5469 Q181.2469,246.5469 181.9031,246.2969 Q182.2938,246.1406 182.7156,245.7031 Q182.9813,245.4375 183.1297,245.3594 Q183.2781,245.2813 183.4813,245.2813 Q183.8094,245.2813 184.0672,245.5391 Q184.325,245.7969 184.325,246.1406 Q184.325,246.4844 183.9813,246.8906 Q183.4813,247.4688 182.6844,247.7969 Q181.6063,248.25 180.3094,248.25 Q178.7938,248.25 177.5906,247.625 Q176.6063,247.125 175.9188,246.0547 Q175.2313,244.9844 175.2313,243.7031 L175.2313,242.5469 Q175.2313,241.2188 175.8484,240.0703 Q176.4656,238.9219 177.5594,238.3047 Q178.6531,237.6875 179.8875,237.6875 Q180.6219,237.6875 181.2703,237.8516 Q181.9188,238.0156 182.4656,238.375 Z "/><text fill="#000000" font-family="sans-serif" font-size="12" lengthAdjust="spacingAndGlyphs" textLength="42" x="196.3" y="247.4102">Product</text><line style="stroke: #A80036; stroke-width: 1.5;" x1="154" x2="252" y1="258.5" y2="258.5"/><text fill="#000000" font-family="sans-serif" font-size="11" lengthAdjust="spacingAndGlyphs" textLength="60" x="159" y="273.9189">name: String</text><text fill="#000000" font-family="sans-serif" font-size="11" lengthAdjust="spacingAndGlyphs" textLength="66" x="159" y="287.7549">price: number</text><text fill="#000000" font-family="sans-serif" font-size="11" lengthAdjust="spacingAndGlyphs" textLength="88" x="159" y="301.5908">type: ProductType</text><line style="stroke: #A80036; stroke-width: 1.5;" x1="154" x2="252" y1="308.0078" y2="308.0078"/><!--class LocationType--><rect fill="#FEFECE" filter="url(#fhzutixwhddkz)" height="75.6719" id="LocationType" style="stroke: #A80036; stroke-width: 1.5;" width="105" x="219.5" y="35.5"/><ellipse cx="234.5" cy="51.5" fill="#EB937F" rx="11" ry="11" style="stroke: #A80036; stroke-width: 1.0;"/><path d="M233.3594,52.2969 L233.3594,54.7969 L237.6875,54.7969 L237.6875,53.875 Q237.6875,53.2656 237.9297,53 Q238.1719,52.7344 238.5469,52.7344 Q238.9219,52.7344 239.1563,53 Q239.3906,53.2656 239.3906,53.875 L239.3906,56.5 L231.3906,56.5 Q230.7656,56.5 230.5078,56.2656 Q230.25,56.0313 230.25,55.6406 Q230.25,55.2656 230.5156,55.0313 Q230.7813,54.7969 231.3906,54.7969 L231.6563,54.7969 L231.6563,48.1406 L231.3906,48.1406 Q230.7656,48.1406 230.5078,47.9063 Q230.25,47.6719 230.25,47.2813 Q230.25,46.9063 230.5078,46.6719 Q230.7656,46.4375 231.3906,46.4375 L239.0156,46.4375 L239.0156,49.0313 Q239.0156,49.6406 238.7891,49.8984 Q238.5625,50.1563 238.1719,50.1563 Q237.7969,50.1563 237.5625,49.8984 Q237.3281,49.6406 237.3281,49.0313 L237.3281,48.1406 L233.3594,48.1406 L233.3594,50.5938 L234.8438,50.5938 Q234.8438,49.9375 234.9688,49.75 Q235.2344,49.3438 235.7031,49.3438 Q236.0781,49.3438 236.3125,49.6016 Q236.5469,49.8594 236.5469,50.4688 L236.5469,52.4375 Q236.5469,52.9844 236.4219,53.1719 Q236.1563,53.5625 235.7031,53.5625 Q235.2344,53.5625 234.9688,53.1563 Q234.8438,52.9688 234.8438,52.2969 L233.3594,52.2969 Z "/><text fill="#000000" font-family="sans-serif" font-size="12" lengthAdjust="spacingAndGlyphs" textLength="73" x="248.5" y="56.4102">LocationType</text><line style="stroke: #A80036; stroke-width: 1.5;" x1="220.5" x2="323.5" y1="67.5" y2="67.5"/><text fill="#000000" font-family="sans-serif" font-size="11" lengthAdjust="spacingAndGlyphs" textLength="22" x="225.5" y="82.9189">BAR</text><text fill="#000000" font-family="sans-serif" font-size="11" lengthAdjust="spacingAndGlyphs" textLength="27" x="225.5" y="96.7549">CAFE</text><line style="stroke: #A80036; stroke-width: 1.5;" x1="220.5" x2="323.5" y1="103.1719" y2="103.1719"/><!--class ProductType--><rect fill="#FEFECE" filter="url(#fhzutixwhddkz)" height="103.3438" id="ProductType" style="stroke: #A80036; stroke-width: 1.5;" width="100" x="360" y="22"/><ellipse cx="375" cy="38" fill="#EB937F" rx="11" ry="11" style="stroke: #A80036; stroke-width: 1.0;"/><path d="M373.8594,38.7969 L373.8594,41.2969 L378.1875,41.2969 L378.1875,40.375 Q378.1875,39.7656 378.4297,39.5 Q378.6719,39.2344 379.0469,39.2344 Q379.4219,39.2344 379.6563,39.5 Q379.8906,39.7656 379.8906,40.375 L379.8906,43 L371.8906,43 Q371.2656,43 371.0078,42.7656 Q370.75,42.5313 370.75,42.1406 Q370.75,41.7656 371.0156,41.5313 Q371.2813,41.2969 371.8906,41.2969 L372.1563,41.2969 L372.1563,34.6406 L371.8906,34.6406 Q371.2656,34.6406 371.0078,34.4063 Q370.75,34.1719 370.75,33.7813 Q370.75,33.4063 371.0078,33.1719 Q371.2656,32.9375 371.8906,32.9375 L379.5156,32.9375 L379.5156,35.5313 Q379.5156,36.1406 379.2891,36.3984 Q379.0625,36.6563 378.6719,36.6563 Q378.2969,36.6563 378.0625,36.3984 Q377.8281,36.1406 377.8281,35.5313 L377.8281,34.6406 L373.8594,34.6406 L373.8594,37.0938 L375.3438,37.0938 Q375.3438,36.4375 375.4688,36.25 Q375.7344,35.8438 376.2031,35.8438 Q376.5781,35.8438 376.8125,36.1016 Q377.0469,36.3594 377.0469,36.9688 L377.0469,38.9375 Q377.0469,39.4844 376.9219,39.6719 Q376.6563,40.0625 376.2031,40.0625 Q375.7344,40.0625 375.4688,39.6563 Q375.3438,39.4688 375.3438,38.7969 L373.8594,38.7969 Z "/><text fill="#000000" font-family="sans-serif" font-size="12" lengthAdjust="spacingAndGlyphs" textLength="68" x="389" y="42.9102">ProductType</text><line style="stroke: #A80036; stroke-width: 1.5;" x1="361" x2="459" y1="54" y2="54"/><text fill="#000000" font-family="sans-serif" font-size="11" lengthAdjust="spacingAndGlyphs" textLength="39" x="366" y="69.4189">COFFEE</text><text fill="#000000" font-family="sans-serif" font-size="11" lengthAdjust="spacingAndGlyphs" textLength="28" x="366" y="83.2549">CAKE</text><text fill="#000000" font-family="sans-serif" font-size="11" lengthAdjust="spacingAndGlyphs" textLength="26" x="366" y="97.0908">BEER</text><text fill="#000000" font-family="sans-serif" font-size="11" lengthAdjust="spacingAndGlyphs" textLength="42" x="366" y="110.9268">BURGER</text><line style="stroke: #A80036; stroke-width: 1.5;" x1="361" x2="459" y1="117.3438" y2="117.3438"/><!--link Location to LocationDetail--><path d="M108.885,139.221 C102.6608,156.65 95.8672,175.672 89.432,193.69 " fill="none" id="Location-&gt;LocationDetail" style="stroke: #A80036; stroke-width: 1.0;"/><polygon fill="#A80036" points="87.6272,198.744,94.4228,191.6152,89.3099,194.0357,86.8894,188.9228,87.6272,198.744" style="stroke: #A80036; stroke-width: 1.0;"/><text fill="#000000" font-family="sans-serif" font-size="13" lengthAdjust="spacingAndGlyphs" textLength="7" x="99.1408" y="160.3359">1</text><text fill="#000000" font-family="sans-serif" font-size="13" lengthAdjust="spacingAndGlyphs" textLength="7" x="82.9091" y="187.9369">1</text><!--link Location to Product--><path d="M155.445,139.221 C165.139,165.982 176.194,196.5 185.204,221.373 " fill="none" id="Location-&gt;Product" style="stroke: #A80036; stroke-width: 1.0;"/><polygon fill="#A80036" points="186.978,226.269,187.674,216.4448,185.2753,221.5679,180.1521,219.1692,186.978,226.269" style="stroke: #A80036; stroke-width: 1.0;"/><text fill="#000000" font-family="sans-serif" font-size="13" lengthAdjust="spacingAndGlyphs" textLength="7" x="150.5018" y="160.3359">1</text><text fill="#000000" font-family="sans-serif" font-size="13" lengthAdjust="spacingAndGlyphs" textLength="5" x="179.1418" y="215.6777">*</text><!--
@startuml

Location "1" - -> "1" LocationDetail
Location "1" - -> "*" Product

class Location {
    name : String
    imageUrl : String
    city: String
    street: String
    zipCode: String
    type: LocationType
}

enum LocationType
{
    BAR
    CAFE
}

class LocationDetail {
    ownerName: String
    donationLink: String
    description: String
    latitude: number
    longitude: number
    googlePlaceId: String
    website: String
}

class Product {
    name: String
    price: number
    type: ProductType
}

enum ProductType {
    COFFEE
    CAKE
    BEER
    BURGER
}

@enduml

PlantUML version 1.2019.09(Mon Aug 26 18:19:51 CEST 2019)
(GPL source distribution)
Java Runtime: Java(TM) SE Runtime Environment
JVM: Java HotSpot(TM) 64-Bit Server VM
Java Version: 1.8.0_241-b07
Operating System: Windows 10
OS Version: 10.0
Default Encoding: Cp1252
Language: en
Country: GB
--></g></svg>