<?xml version="1.0" encoding="UTF-8" standalone="no"?><svg xmlns="http://www.w3.org/2000/svg" xmlns:xlink="http://www.w3.org/1999/xlink" contentScriptType="application/ecmascript" contentStyleType="text/css" height="299px" preserveAspectRatio="none" style="width:456px;height:299px;" version="1.1" viewBox="0 0 456 299" width="456px" zoomAndPan="magnify"><defs><filter height="300%" id="f1gy2u5qytysha" width="300%" x="-1" y="-1"><feGaussianBlur result="blurOut" stdDeviation="2.0"/><feColorMatrix in="blurOut" result="blurOut2" type="matrix" values="0 0 0 0 0 0 0 0 0 0 0 0 0 0 0 0 0 0 .4 0"/><feOffset dx="4.0" dy="4.0" in="blurOut2" result="blurOut3"/><feBlend in="SourceGraphic" in2="blurOut3" mode="normal"/></filter></defs><g><!--class Location--><rect fill="#FEFECE" filter="url(#f1gy2u5qytysha)" height="131.0156" id="Location" style="stroke: #A80036; stroke-width: 1.5;" width="106" x="63.5" y="8"/><ellipse cx="90.65" cy="24" fill="#ADD1B2" rx="11" ry="11" style="stroke: #A80036; stroke-width: 1.0;"/><path d="M93.4156,19.875 Q93.5719,19.6563 93.7594,19.5469 Q93.9469,19.4375 94.1656,19.4375 Q94.5406,19.4375 94.775,19.6953 Q95.0094,19.9531 95.0094,20.5625 L95.0094,22.0156 Q95.0094,22.625 94.775,22.8906 Q94.5406,23.1563 94.1656,23.1563 Q93.8219,23.1563 93.6188,22.9531 Q93.4156,22.7656 93.3063,22.25 Q93.2594,21.8906 93.0719,21.7031 Q92.7438,21.3281 92.1344,21.1094 Q91.525,20.8906 90.9,20.8906 Q90.1344,20.8906 89.5016,21.2188 Q88.8688,21.5469 88.3766,22.2969 Q87.8844,23.0469 87.8844,24.0781 L87.8844,25.1719 Q87.8844,26.4063 88.775,27.2266 Q89.6656,28.0469 91.2594,28.0469 Q92.1969,28.0469 92.8531,27.7969 Q93.2438,27.6406 93.6656,27.2031 Q93.9313,26.9375 94.0797,26.8594 Q94.2281,26.7813 94.4313,26.7813 Q94.7594,26.7813 95.0172,27.0391 Q95.275,27.2969 95.275,27.6406 Q95.275,27.9844 94.9313,28.3906 Q94.4313,28.9688 93.6344,29.2969 Q92.5563,29.75 91.2594,29.75 Q89.7438,29.75 88.5406,29.125 Q87.5563,28.625 86.8688,27.5547 Q86.1813,26.4844 86.1813,25.2031 L86.1813,24.0469 Q86.1813,22.7188 86.7984,21.5703 Q87.4156,20.4219 88.5094,19.8047 Q89.6031,19.1875 90.8375,19.1875 Q91.5719,19.1875 92.2203,19.3516 Q92.8688,19.5156 93.4156,19.875 Z "/><text fill="#000000" font-family="sans-serif" font-size="12" lengthAdjust="spacingAndGlyphs" textLength="47" x="107.35" y="28.9102">Location</text><line style="stroke: #A80036; stroke-width: 1.5;" x1="64.5" x2="168.5" y1="40" y2="40"/><text fill="#000000" font-family="sans-serif" font-size="11" lengthAdjust="spacingAndGlyphs" textLength="63" x="69.5" y="55.4189">name : String</text><text fill="#000000" font-family="sans-serif" font-size="11" lengthAdjust="spacingAndGlyphs" textLength="93" x="69.5" y="69.2549">ownerName: String</text><text fill="#000000" font-family="sans-serif" font-size="11" lengthAdjust="spacingAndGlyphs" textLength="77" x="69.5" y="83.0908">imageurl : String</text><text fill="#000000" font-family="sans-serif" font-size="11" lengthAdjust="spacingAndGlyphs" textLength="88" x="69.5" y="96.9268">address: Address</text><text fill="#000000" font-family="sans-serif" font-size="11" lengthAdjust="spacingAndGlyphs" textLength="92" x="69.5" y="110.7627">type: LocationType</text><text fill="#000000" font-family="sans-serif" font-size="11" lengthAdjust="spacingAndGlyphs" textLength="94" x="69.5" y="124.5986">donationLink: String</text><line style="stroke: #A80036; stroke-width: 1.5;" x1="64.5" x2="168.5" y1="131.0156" y2="131.0156"/><!--class Address--><rect fill="#FEFECE" filter="url(#f1gy2u5qytysha)" height="89.5078" id="Address" style="stroke: #A80036; stroke-width: 1.5;" width="91" x="6" y="199"/><ellipse cx="26.85" cy="215" fill="#ADD1B2" rx="11" ry="11" style="stroke: #A80036; stroke-width: 1.0;"/><path d="M29.6156,210.875 Q29.7719,210.6563 29.9594,210.5469 Q30.1469,210.4375 30.3656,210.4375 Q30.7406,210.4375 30.975,210.6953 Q31.2094,210.9531 31.2094,211.5625 L31.2094,213.0156 Q31.2094,213.625 30.975,213.8906 Q30.7406,214.1563 30.3656,214.1563 Q30.0219,214.1563 29.8188,213.9531 Q29.6156,213.7656 29.5063,213.25 Q29.4594,212.8906 29.2719,212.7031 Q28.9438,212.3281 28.3344,212.1094 Q27.725,211.8906 27.1,211.8906 Q26.3344,211.8906 25.7016,212.2188 Q25.0688,212.5469 24.5766,213.2969 Q24.0844,214.0469 24.0844,215.0781 L24.0844,216.1719 Q24.0844,217.4063 24.975,218.2266 Q25.8656,219.0469 27.4594,219.0469 Q28.3969,219.0469 29.0531,218.7969 Q29.4438,218.6406 29.8656,218.2031 Q30.1313,217.9375 30.2797,217.8594 Q30.4281,217.7813 30.6313,217.7813 Q30.9594,217.7813 31.2172,218.0391 Q31.475,218.2969 31.475,218.6406 Q31.475,218.9844 31.1313,219.3906 Q30.6313,219.9688 29.8344,220.2969 Q28.7563,220.75 27.4594,220.75 Q25.9438,220.75 24.7406,220.125 Q23.7563,219.625 23.0688,218.5547 Q22.3813,217.4844 22.3813,216.2031 L22.3813,215.0469 Q22.3813,213.7188 22.9984,212.5703 Q23.6156,211.4219 24.7094,210.8047 Q25.8031,210.1875 27.0375,210.1875 Q27.7719,210.1875 28.4203,210.3516 Q29.0688,210.5156 29.6156,210.875 Z "/><text fill="#000000" font-family="sans-serif" font-size="12" lengthAdjust="spacingAndGlyphs" textLength="46" x="42.15" y="219.9102">Address</text><line style="stroke: #A80036; stroke-width: 1.5;" x1="7" x2="96" y1="231" y2="231"/><text fill="#000000" font-family="sans-serif" font-size="11" lengthAdjust="spacingAndGlyphs" textLength="51" x="12" y="246.4189">city: String</text><text fill="#000000" font-family="sans-serif" font-size="11" lengthAdjust="spacingAndGlyphs" textLength="62" x="12" y="260.2549">street: String</text><text fill="#000000" font-family="sans-serif" font-size="11" lengthAdjust="spacingAndGlyphs" textLength="79" x="12" y="274.0908">postcode: String</text><line style="stroke: #A80036; stroke-width: 1.5;" x1="7" x2="96" y1="280.5078" y2="280.5078"/><!--class Product--><rect fill="#FEFECE" filter="url(#f1gy2u5qytysha)" height="89.5078" id="Product" style="stroke: #A80036; stroke-width: 1.5;" width="100" x="132.5" y="199"/><ellipse cx="159.2" cy="215" fill="#ADD1B2" rx="11" ry="11" style="stroke: #A80036; stroke-width: 1.0;"/><path d="M161.9656,210.875 Q162.1219,210.6563 162.3094,210.5469 Q162.4969,210.4375 162.7156,210.4375 Q163.0906,210.4375 163.325,210.6953 Q163.5594,210.9531 163.5594,211.5625 L163.5594,213.0156 Q163.5594,213.625 163.325,213.8906 Q163.0906,214.1563 162.7156,214.1563 Q162.3719,214.1563 162.1688,213.9531 Q161.9656,213.7656 161.8563,213.25 Q161.8094,212.8906 161.6219,212.7031 Q161.2938,212.3281 160.6844,212.1094 Q160.075,211.8906 159.45,211.8906 Q158.6844,211.8906 158.0516,212.2188 Q157.4188,212.5469 156.9266,213.2969 Q156.4344,214.0469 156.4344,215.0781 L156.4344,216.1719 Q156.4344,217.4063 157.325,218.2266 Q158.2156,219.0469 159.8094,219.0469 Q160.7469,219.0469 161.4031,218.7969 Q161.7938,218.6406 162.2156,218.2031 Q162.4813,217.9375 162.6297,217.8594 Q162.7781,217.7813 162.9813,217.7813 Q163.3094,217.7813 163.5672,218.0391 Q163.825,218.2969 163.825,218.6406 Q163.825,218.9844 163.4813,219.3906 Q162.9813,219.9688 162.1844,220.2969 Q161.1063,220.75 159.8094,220.75 Q158.2938,220.75 157.0906,220.125 Q156.1063,219.625 155.4188,218.5547 Q154.7313,217.4844 154.7313,216.2031 L154.7313,215.0469 Q154.7313,213.7188 155.3484,212.5703 Q155.9656,211.4219 157.0594,210.8047 Q158.1531,210.1875 159.3875,210.1875 Q160.1219,210.1875 160.7703,210.3516 Q161.4188,210.5156 161.9656,210.875 Z "/><text fill="#000000" font-family="sans-serif" font-size="12" lengthAdjust="spacingAndGlyphs" textLength="42" x="175.8" y="219.9102">Product</text><line style="stroke: #A80036; stroke-width: 1.5;" x1="133.5" x2="231.5" y1="231" y2="231"/><text fill="#000000" font-family="sans-serif" font-size="11" lengthAdjust="spacingAndGlyphs" textLength="60" x="138.5" y="246.4189">name: String</text><text fill="#000000" font-family="sans-serif" font-size="11" lengthAdjust="spacingAndGlyphs" textLength="66" x="138.5" y="260.2549">price: number</text><text fill="#000000" font-family="sans-serif" font-size="11" lengthAdjust="spacingAndGlyphs" textLength="88" x="138.5" y="274.0908">type: ProductType</text><line style="stroke: #A80036; stroke-width: 1.5;" x1="133.5" x2="231.5" y1="280.5078" y2="280.5078"/><!--class LocationType--><rect fill="#FEFECE" filter="url(#f1gy2u5qytysha)" height="75.6719" id="LocationType" style="stroke: #A80036; stroke-width: 1.5;" width="105" x="205" y="35.5"/><ellipse cx="220" cy="51.5" fill="#EB937F" rx="11" ry="11" style="stroke: #A80036; stroke-width: 1.0;"/><path d="M218.8594,52.2969 L218.8594,54.7969 L223.1875,54.7969 L223.1875,53.875 Q223.1875,53.2656 223.4297,53 Q223.6719,52.7344 224.0469,52.7344 Q224.4219,52.7344 224.6563,53 Q224.8906,53.2656 224.8906,53.875 L224.8906,56.5 L216.8906,56.5 Q216.2656,56.5 216.0078,56.2656 Q215.75,56.0313 215.75,55.6406 Q215.75,55.2656 216.0156,55.0313 Q216.2813,54.7969 216.8906,54.7969 L217.1563,54.7969 L217.1563,48.1406 L216.8906,48.1406 Q216.2656,48.1406 216.0078,47.9063 Q215.75,47.6719 215.75,47.2813 Q215.75,46.9063 216.0078,46.6719 Q216.2656,46.4375 216.8906,46.4375 L224.5156,46.4375 L224.5156,49.0313 Q224.5156,49.6406 224.2891,49.8984 Q224.0625,50.1563 223.6719,50.1563 Q223.2969,50.1563 223.0625,49.8984 Q222.8281,49.6406 222.8281,49.0313 L222.8281,48.1406 L218.8594,48.1406 L218.8594,50.5938 L220.3438,50.5938 Q220.3438,49.9375 220.4688,49.75 Q220.7344,49.3438 221.2031,49.3438 Q221.5781,49.3438 221.8125,49.6016 Q222.0469,49.8594 222.0469,50.4688 L222.0469,52.4375 Q222.0469,52.9844 221.9219,53.1719 Q221.6563,53.5625 221.2031,53.5625 Q220.7344,53.5625 220.4688,53.1563 Q220.3438,52.9688 220.3438,52.2969 L218.8594,52.2969 Z "/><text fill="#000000" font-family="sans-serif" font-size="12" lengthAdjust="spacingAndGlyphs" textLength="73" x="234" y="56.4102">LocationType</text><line style="stroke: #A80036; stroke-width: 1.5;" x1="206" x2="309" y1="67.5" y2="67.5"/><text fill="#000000" font-family="sans-serif" font-size="11" lengthAdjust="spacingAndGlyphs" textLength="22" x="211" y="82.9189">BAR</text><text fill="#000000" font-family="sans-serif" font-size="11" lengthAdjust="spacingAndGlyphs" textLength="27" x="211" y="96.7549">CAFE</text><line style="stroke: #A80036; stroke-width: 1.5;" x1="206" x2="309" y1="103.1719" y2="103.1719"/><!--class ProductType--><rect fill="#FEFECE" filter="url(#f1gy2u5qytysha)" height="103.3438" id="ProductType" style="stroke: #A80036; stroke-width: 1.5;" width="100" x="345.5" y="22"/><ellipse cx="360.5" cy="38" fill="#EB937F" rx="11" ry="11" style="stroke: #A80036; stroke-width: 1.0;"/><path d="M359.3594,38.7969 L359.3594,41.2969 L363.6875,41.2969 L363.6875,40.375 Q363.6875,39.7656 363.9297,39.5 Q364.1719,39.2344 364.5469,39.2344 Q364.9219,39.2344 365.1563,39.5 Q365.3906,39.7656 365.3906,40.375 L365.3906,43 L357.3906,43 Q356.7656,43 356.5078,42.7656 Q356.25,42.5313 356.25,42.1406 Q356.25,41.7656 356.5156,41.5313 Q356.7813,41.2969 357.3906,41.2969 L357.6563,41.2969 L357.6563,34.6406 L357.3906,34.6406 Q356.7656,34.6406 356.5078,34.4063 Q356.25,34.1719 356.25,33.7813 Q356.25,33.4063 356.5078,33.1719 Q356.7656,32.9375 357.3906,32.9375 L365.0156,32.9375 L365.0156,35.5313 Q365.0156,36.1406 364.7891,36.3984 Q364.5625,36.6563 364.1719,36.6563 Q363.7969,36.6563 363.5625,36.3984 Q363.3281,36.1406 363.3281,35.5313 L363.3281,34.6406 L359.3594,34.6406 L359.3594,37.0938 L360.8438,37.0938 Q360.8438,36.4375 360.9688,36.25 Q361.2344,35.8438 361.7031,35.8438 Q362.0781,35.8438 362.3125,36.1016 Q362.5469,36.3594 362.5469,36.9688 L362.5469,38.9375 Q362.5469,39.4844 362.4219,39.6719 Q362.1563,40.0625 361.7031,40.0625 Q361.2344,40.0625 360.9688,39.6563 Q360.8438,39.4688 360.8438,38.7969 L359.3594,38.7969 Z "/><text fill="#000000" font-family="sans-serif" font-size="12" lengthAdjust="spacingAndGlyphs" textLength="68" x="374.5" y="42.9102">ProductType</text><line style="stroke: #A80036; stroke-width: 1.5;" x1="346.5" x2="444.5" y1="54" y2="54"/><text fill="#000000" font-family="sans-serif" font-size="11" lengthAdjust="spacingAndGlyphs" textLength="39" x="351.5" y="69.4189">COFFEE</text><text fill="#000000" font-family="sans-serif" font-size="11" lengthAdjust="spacingAndGlyphs" textLength="28" x="351.5" y="83.2549">CAKE</text><text fill="#000000" font-family="sans-serif" font-size="11" lengthAdjust="spacingAndGlyphs" textLength="26" x="351.5" y="97.0908">BEER</text><text fill="#000000" font-family="sans-serif" font-size="11" lengthAdjust="spacingAndGlyphs" textLength="42" x="351.5" y="110.9268">BURGER</text><line style="stroke: #A80036; stroke-width: 1.5;" x1="346.5" x2="444.5" y1="117.3438" y2="117.3438"/><!--link Location to Address--><path d="M91.5552,139.165 C84.5194,157.404 76.9834,176.939 70.3679,194.0886 " fill="none" id="Location-&gt;Address" style="stroke: #A80036; stroke-width: 1.0;"/><polygon fill="#A80036" points="68.5276,198.8593,75.4987,191.9021,70.3271,194.1944,68.0348,189.0228,68.5276,198.8593" style="stroke: #A80036; stroke-width: 1.0;"/><text fill="#000000" font-family="sans-serif" font-size="13" lengthAdjust="spacingAndGlyphs" textLength="7" x="81.4441" y="160.7356">1</text><text fill="#000000" font-family="sans-serif" font-size="13" lengthAdjust="spacingAndGlyphs" textLength="7" x="63.599" y="188.2815">1</text><!--link Location to Product--><path d="M141.829,139.165 C148.973,157.404 156.625,176.939 163.342,194.0886 " fill="none" id="Location-&gt;Product" style="stroke: #A80036; stroke-width: 1.0;"/><polygon fill="#A80036" points="165.21,198.8593,165.6521,189.0204,163.3865,194.2037,158.2032,191.938,165.21,198.8593" style="stroke: #A80036; stroke-width: 1.0;"/><text fill="#000000" font-family="sans-serif" font-size="13" lengthAdjust="spacingAndGlyphs" textLength="7" x="137.2165" y="160.7356">1</text><text fill="#000000" font-family="sans-serif" font-size="13" lengthAdjust="spacingAndGlyphs" textLength="5" x="157.1797" y="188.2815">*</text><!--
@startuml

Location "1" - -> "1" Address
Location "1" - -> "*" Product

class Location {
   name : String
   ownerName: String
   imageurl : String
   address: Address
   type: LocationType
   donationLink: String
}

enum LocationType
{
    BAR
    CAFE
}

class Address {
    city: String
    street: String
    postcode: String
}

class Product {
    name: String
    price: number
    type: ProductType
}

enum ProductType {
    COFFEE
    CAKE
    BEER
    BURGER
}

@enduml

PlantUML version 1.2019.09(Mon Aug 26 18:19:51 CEST 2019)
(GPL source distribution)
Java Runtime: Java(TM) SE Runtime Environment
JVM: Java HotSpot(TM) 64-Bit Server VM
Java Version: 1.8.0_241-b07
Operating System: Windows 10
OS Version: 10.0
Default Encoding: Cp1252
Language: en
Country: GB
--></g></svg>